# xmcd
#
# Track frame offsets:
#	150
#	79487
#	111715
#	168527
#	226334
#	249040
#	269156
#	346284
#
# Disc length: 4698 seconds
#
# Revision: 1
# Processed by: cddbd v1.5PL3 Copyright (c) Steve Scherf et al.
# Submitted via: CDmax 2.0
#
DISCID=73125808
DTITLE=Eric Clapton - Live at Royal Albert Hall, 02.03.1989 - d2
DYEAR=1997
DGENRE=Blues
TTITLE0=Same Old Blues
TTITLE1=Tearing Us Apart
TTITLE2=Cocaine
TTITLE3=Layla
TTITLE4=Solid Rock
TTITLE5=Behind The Mask
TTITLE6=Sunshine Of Your Love
TTITLE7=Closing
EXTD=Eric Clapton\nRoyal Albert Hall\nLondon, England\nFebruary 3, 1989\n"Bee
EXTD=tle Clasher" (Tarantura]\n\nLineage:  Original silvers => Unknown CDR ge
EXTD=nerations => CDR => EAC => FLAC\n\nGot this one in trade a few months ag
EXTD=o - a near-perfect soundboard from the RAH in \n1989.  I don't know any m
EXTD=ore about the lineage than what's above - sorry.  Both\nsound and perform
EXTD=ance are excellent.  I believe that the Beatle reference in the \ntitl
EXTD=e is due to the fact that George Harrison was in attendance (althoug
EXTD=h I don't\nthink he played) that night.\n\nTrack Listing:\n\nDisc 1:\n(1
EXTD=)  Crossroads (8:14]\n(2)  White Room (7:09]\n(3)  I Shot The Sheriff (8
EXTD=:20]\n(4)  Bell Bottom Blues (5:59]\n(5)  Lay Down Sally (7:10]\n(6)  Wo
EXTD=nderful Tonight (7:31]\n(7)  I Wanna Make Love to You (8:03]\n(8)  Afte
EXTD=r Midnight (5:30]\n(9)  Can't Find My Way Home (6:58]\n(10) Forever Ma
EXTD=n (4:59]\nTotal time:  69:53\n\nDisc 2:\n\n(1)  Same Old Blues (17:37]\n
EXTD=(2)  Tearing Us Apart (7:09]\n(3)  Cocaine (12:37]\n(4)  Layla (12:50]\n
EXTD=(5)  Solid Rock (5:02]\n(6)  Behind The Mask (4:28]\n(7)  Sunshine Of Yo
EXTD=ur Love (17:08]\n(8)  Closing (1:21]\n\nTotal time:  78:18\n\nArtwork ca
EXTD=n be found here:\n\nhttp://cao212.cao.msu.edu/artwork/images/Eric%20Clap
EXTD=ton%20Beetle-Clasher%20Royal%20Albert%20Hall%2003_02_1989/\n\nBand lineu
EXTD=p:\nEric Clapton (Guitar - Vocals) \nNathan East (Bass - Vocals]\nStev
EXTD=e Ferrone (Drums) \nMark Knopfler (Guitar - Vocals) \nGreg Phillingane
EXTD=s (Keyboards - Vocals) \nAlan Clark (Keyboards) \nRay Cooper (Percussion
EXTD=) \nTessa Niles (Backing Vocals) \nKatie Kisson (Backing Vocals]\n\nTota
EXTD=l size (FLAC compressed): 951 mb\nTotal size (uncompressed): 1.46 Gb\n\n
EXTD=Note:  The Tarantura release spread this show across three discs -- no d
EXTD=oubt to \nincrease the amount they could charge.  Discs 2 and 3 are comp
EXTD=ressed onto Disc 2\nof this set.\n\nEnjoy!
EXTT0=
EXTT1=
EXTT2=
EXTT3=
EXTT4=
EXTT5=
EXTT6=
EXTT7=
PLAYORDER=
